<svg width="381" height="124" viewBox="0 0 381 124" fill="none" xmlns="http://www.w3.org/2000/svg">
<rect width="380.237" height="123.938" rx="13" fill="white"/>
<path d="M20.7408 97.966C19.8091 97.966 19.0226 97.7602 18.3813 97.3485C17.7399 96.9325 17.2546 96.3584 16.9253 95.626C16.5959 94.8937 16.4313 94.0487 16.4313 93.091C16.4313 92.1334 16.5959 91.2884 16.9253 90.556C17.2546 89.8237 17.7399 89.2517 18.3813 88.84C19.0226 88.424 19.8091 88.216 20.7408 88.216C21.8284 88.216 22.7168 88.4955 23.4058 89.0545C24.0948 89.6092 24.5671 90.3545 24.8228 91.2905L23.8478 91.544C23.6484 90.803 23.2909 90.2159 22.7753 89.7825C22.2596 89.3492 21.5814 89.1325 20.7408 89.1325C20.0084 89.1325 19.3996 89.2994 18.9143 89.633C18.4289 89.9667 18.0628 90.4325 17.8158 91.0305C17.5731 91.6242 17.4474 92.311 17.4388 93.091C17.4344 93.871 17.5536 94.5579 17.7963 95.1515C18.0433 95.7452 18.4116 96.211 18.9013 96.549C19.3953 96.8827 20.0084 97.0495 20.7408 97.0495C21.5814 97.0495 22.2596 96.8329 22.7753 96.3995C23.2909 95.9619 23.6484 95.3747 23.8478 94.638L24.8228 94.8915C24.5671 95.8275 24.0948 96.575 23.4058 97.134C22.7168 97.6887 21.8284 97.966 20.7408 97.966ZM29.1884 97.966C28.4908 97.966 27.8949 97.8079 27.4009 97.4915C26.9069 97.1752 26.5278 96.7375 26.2634 96.1785C25.9991 95.6195 25.8669 94.9782 25.8669 94.2545C25.8669 93.5179 26.0013 92.8722 26.2699 92.3175C26.5386 91.7629 26.9199 91.3317 27.4139 91.024C27.9123 90.712 28.5038 90.556 29.1884 90.556C29.8904 90.556 30.4884 90.7142 30.9824 91.0305C31.4808 91.3425 31.8599 91.778 32.1199 92.337C32.3843 92.8917 32.5164 93.5309 32.5164 94.2545C32.5164 94.9912 32.3843 95.639 32.1199 96.198C31.8556 96.7527 31.4743 97.186 30.9759 97.498C30.4776 97.81 29.8818 97.966 29.1884 97.966ZM29.1884 97.0495C29.9684 97.0495 30.5491 96.7917 30.9304 96.276C31.3118 95.756 31.5024 95.0822 31.5024 94.2545C31.5024 93.4052 31.3096 92.7292 30.9239 92.2265C30.5426 91.7239 29.9641 91.4725 29.1884 91.4725C28.6641 91.4725 28.2308 91.5917 27.8884 91.83C27.5504 92.064 27.2969 92.3912 27.1279 92.8115C26.9633 93.2275 26.8809 93.7085 26.8809 94.2545C26.8809 95.0995 27.0759 95.7777 27.4659 96.289C27.8559 96.796 28.4301 97.0495 29.1884 97.0495ZM39.0203 97.771V94.1895C39.0203 93.7995 38.9835 93.442 38.9098 93.117C38.8361 92.7877 38.717 92.5017 38.5523 92.259C38.392 92.012 38.1818 91.8214 37.9218 91.687C37.6661 91.5527 37.3541 91.4855 36.9858 91.4855C36.6478 91.4855 36.3488 91.544 36.0888 91.661C35.8331 91.778 35.6165 91.947 35.4388 92.168C35.2655 92.3847 35.1333 92.649 35.0423 92.961C34.9513 93.273 34.9058 93.6284 34.9058 94.027L34.2298 93.8775C34.2298 93.1582 34.3554 92.5537 34.6068 92.064C34.8581 91.5744 35.2048 91.2039 35.6468 90.9525C36.0888 90.7012 36.5958 90.5755 37.1678 90.5755C37.5881 90.5755 37.9543 90.6405 38.2663 90.7705C38.5826 90.9005 38.8491 91.076 39.0658 91.297C39.2868 91.518 39.4645 91.7715 39.5988 92.0575C39.7331 92.3392 39.8306 92.6404 39.8913 92.961C39.952 93.2774 39.9823 93.5937 39.9823 93.91V97.771H39.0203ZM33.9438 97.771V90.751H34.8083V92.48H34.9058V97.771H33.9438ZM44.2885 97.9595C43.4652 97.9595 42.787 97.7819 42.254 97.4265C41.7254 97.0712 41.4004 96.5772 41.279 95.9445L42.254 95.782C42.358 96.1807 42.5942 96.4992 42.9625 96.7375C43.3352 96.9715 43.7945 97.0885 44.3405 97.0885C44.8735 97.0885 45.2939 96.978 45.6015 96.757C45.9092 96.5317 46.063 96.2262 46.063 95.8405C46.063 95.6239 46.0132 95.4484 45.9135 95.314C45.8182 95.1754 45.621 95.0475 45.322 94.9305C45.023 94.8135 44.5767 94.6749 43.983 94.5145C43.346 94.3412 42.8477 94.1679 42.488 93.9945C42.1284 93.8212 41.8727 93.6219 41.721 93.3965C41.5694 93.1669 41.4935 92.8874 41.4935 92.558C41.4935 92.1594 41.6062 91.8105 41.8315 91.5115C42.0569 91.2082 42.3689 90.9742 42.7675 90.8095C43.1662 90.6405 43.6299 90.556 44.1585 90.556C44.6872 90.556 45.1595 90.6427 45.5755 90.816C45.9959 90.985 46.3339 91.2234 46.5895 91.531C46.8452 91.8387 46.9969 92.1962 47.0445 92.6035L46.0695 92.779C46.0045 92.3674 45.7987 92.0424 45.452 91.804C45.1097 91.5614 44.6742 91.4357 44.1455 91.427C43.6472 91.414 43.242 91.5094 42.93 91.713C42.618 91.9124 42.462 92.1789 42.462 92.5125C42.462 92.6989 42.5184 92.8592 42.631 92.9935C42.7437 93.1235 42.9474 93.247 43.242 93.364C43.541 93.481 43.9657 93.6089 44.516 93.7475C45.1617 93.9122 45.6687 94.0855 46.037 94.2675C46.4054 94.4495 46.6675 94.664 46.8235 94.911C46.9795 95.158 47.0575 95.4635 47.0575 95.8275C47.0575 96.4905 46.8105 97.0127 46.3165 97.394C45.8269 97.771 45.1509 97.9595 44.2885 97.9595ZM51.1836 97.9465C50.7633 97.9465 50.3949 97.8815 50.0786 97.7515C49.7666 97.6215 49.5001 97.446 49.2791 97.225C49.0624 97.004 48.8869 96.7527 48.7526 96.471C48.6183 96.185 48.5208 95.8839 48.4601 95.5675C48.3994 95.2469 48.3691 94.9284 48.3691 94.612V90.751H49.3311V94.3325C49.3311 94.7182 49.3679 95.0757 49.4416 95.405C49.5153 95.7344 49.6323 96.0225 49.7926 96.2695C49.9573 96.5122 50.1674 96.7007 50.4231 96.835C50.6831 96.9694 50.9973 97.0365 51.3656 97.0365C51.7036 97.0365 52.0004 96.978 52.2561 96.861C52.5161 96.744 52.7328 96.5772 52.9061 96.3605C53.0838 96.1395 53.2181 95.873 53.3091 95.561C53.4001 95.2447 53.4456 94.8894 53.4456 94.495L54.1216 94.6445C54.1216 95.3639 53.9959 95.9684 53.7446 96.458C53.4933 96.9477 53.1466 97.3182 52.7046 97.5695C52.2626 97.8209 51.7556 97.9465 51.1836 97.9465ZM53.5431 97.771V96.042H53.4456V90.751H54.4011V97.771H53.5431ZM56.3479 97.771V88.216H57.3034V97.771H56.3479ZM63.074 97.771C62.6797 97.8534 62.2897 97.8859 61.904 97.8685C61.5227 97.8512 61.1804 97.7689 60.877 97.6215C60.578 97.4742 60.3505 97.2445 60.1945 96.9325C60.0689 96.6725 59.9995 96.4104 59.9865 96.146C59.9779 95.8774 59.9735 95.5719 59.9735 95.2295V88.801H60.9225V95.1905C60.9225 95.4852 60.9247 95.7322 60.929 95.9315C60.9377 96.1265 60.9832 96.2999 61.0655 96.4515C61.2215 96.7419 61.4685 96.9152 61.8065 96.9715C62.1489 97.0279 62.5714 97.0149 63.074 96.9325V97.771ZM58.472 91.57V90.751H63.074V91.57H58.472ZM66.4656 97.966C65.937 97.966 65.4928 97.8707 65.1331 97.68C64.7778 97.4894 64.5113 97.2359 64.3336 96.9195C64.156 96.6032 64.0671 96.2587 64.0671 95.886C64.0671 95.5047 64.143 95.1797 64.2946 94.911C64.4506 94.638 64.6608 94.4149 64.9251 94.2415C65.1938 94.0682 65.5036 93.936 65.8546 93.845C66.21 93.7584 66.6021 93.6825 67.0311 93.6175C67.4645 93.5482 67.887 93.4897 68.2986 93.442C68.7146 93.39 69.0786 93.3402 69.3906 93.2925L69.0526 93.5005C69.0656 92.8072 68.9313 92.2937 68.6496 91.96C68.368 91.6264 67.8783 91.4595 67.1806 91.4595C66.6996 91.4595 66.2923 91.5679 65.9586 91.7845C65.6293 92.0012 65.3975 92.3435 65.2631 92.8115L64.3336 92.5385C64.494 91.9102 64.8168 91.4227 65.3021 91.076C65.7875 90.7294 66.418 90.556 67.1936 90.556C67.835 90.556 68.3788 90.6774 68.8251 90.92C69.2758 91.1584 69.5943 91.505 69.7806 91.96C69.8673 92.1637 69.9236 92.3912 69.9496 92.6425C69.9756 92.8939 69.9886 93.1495 69.9886 93.4095V97.771H69.1371V96.0095L69.3841 96.1135C69.1458 96.7159 68.7753 97.1752 68.2726 97.4915C67.77 97.8079 67.1676 97.966 66.4656 97.966ZM66.5761 97.1405C67.0225 97.1405 67.4125 97.0604 67.7461 96.9C68.0798 96.7397 68.3485 96.5209 68.5521 96.2435C68.7558 95.9619 68.888 95.6455 68.9486 95.2945C69.0006 95.0692 69.0288 94.8222 69.0331 94.5535C69.0375 94.2805 69.0396 94.0769 69.0396 93.9425L69.4036 94.131C69.0786 94.1744 68.7255 94.2177 68.3441 94.261C67.9671 94.3044 67.5945 94.3542 67.2261 94.4105C66.8621 94.4669 66.5328 94.534 66.2381 94.612C66.0388 94.6684 65.846 94.7485 65.6596 94.8525C65.4733 94.9522 65.3195 95.0865 65.1981 95.2555C65.0811 95.4245 65.0226 95.6347 65.0226 95.886C65.0226 96.0897 65.0725 96.2869 65.1721 96.4775C65.2761 96.6682 65.4408 96.8264 65.6661 96.952C65.8958 97.0777 66.1991 97.1405 66.5761 97.1405ZM76.7508 97.771V94.1895C76.7508 93.7995 76.7139 93.442 76.6403 93.117C76.5666 92.7877 76.4474 92.5017 76.2828 92.259C76.1224 92.012 75.9123 91.8214 75.6523 91.687C75.3966 91.5527 75.0846 91.4855 74.7163 91.4855C74.3783 91.4855 74.0793 91.544 73.8193 91.661C73.5636 91.778 73.3469 91.947 73.1693 92.168C72.9959 92.3847 72.8638 92.649 72.7728 92.961C72.6818 93.273 72.6363 93.6284 72.6363 94.027L71.9603 93.8775C71.9603 93.1582 72.0859 92.5537 72.3373 92.064C72.5886 91.5744 72.9353 91.2039 73.3773 90.9525C73.8193 90.7012 74.3263 90.5755 74.8983 90.5755C75.3186 90.5755 75.6848 90.6405 75.9968 90.7705C76.3131 90.9005 76.5796 91.076 76.7963 91.297C77.0173 91.518 77.1949 91.7715 77.3293 92.0575C77.4636 92.3392 77.5611 92.6404 77.6218 92.961C77.6824 93.2774 77.7128 93.5937 77.7128 93.91V97.771H76.7508ZM71.6743 97.771V90.751H72.5388V92.48H72.6363V97.771H71.6743ZM82.2734 97.966C81.5671 97.966 80.9691 97.8079 80.4794 97.4915C79.9897 97.1752 79.6171 96.7397 79.3614 96.185C79.1101 95.626 78.9801 94.9847 78.9714 94.261C78.9801 93.5244 79.1144 92.8787 79.3744 92.324C79.6344 91.765 80.0092 91.3317 80.4989 91.024C80.9886 90.712 81.5822 90.556 82.2799 90.556C82.9906 90.556 83.6081 90.7294 84.1324 91.076C84.6611 91.4227 85.0229 91.8972 85.2179 92.4995L84.2819 92.7985C84.1172 92.3782 83.8551 92.0532 83.4954 91.8235C83.1401 91.5895 82.7327 91.4725 82.2734 91.4725C81.7577 91.4725 81.3309 91.5917 80.9929 91.83C80.6549 92.064 80.4036 92.3912 80.2389 92.8115C80.0742 93.2319 79.9897 93.715 79.9854 94.261C79.9941 95.1017 80.1891 95.7777 80.5704 96.289C80.9517 96.796 81.5194 97.0495 82.2734 97.0495C82.7501 97.0495 83.1552 96.9412 83.4889 96.7245C83.8269 96.5035 84.0826 96.1829 84.2559 95.7625L85.2179 96.0485C84.9579 96.6725 84.5766 97.1492 84.0739 97.4785C83.5712 97.8035 82.9711 97.966 82.2734 97.966ZM87.3068 100.891L88.6653 97.2055L88.6848 98.2975L85.6103 90.751H86.6243L89.1463 97.0625H88.7303L91.0573 90.751H92.0323L88.2623 100.891H87.3068Z" fill="black"/>
<rect x="26.7354" y="20.2001" width="61.1944" height="61.1944" rx="8" fill="#6BCBB8"/>
<g clip-path="url(#clip0_9_69)">
<path d="M57.6298 50.6264C63.0678 50.6264 67.4752 46.2098 67.4752 40.7603C67.4752 35.3109 63.0678 30.8943 57.6298 30.8943C52.1917 30.8943 47.7843 35.3109 47.7843 40.7603C47.7843 46.2098 52.1917 50.6264 57.6298 50.6264ZM50.2457 54.8811C44.5538 56.5537 40.4003 61.8259 40.4003 68.0693C40.4003 69.3334 41.4233 70.3585 42.6847 70.3585H72.5748C73.8363 70.3585 74.8593 69.3334 74.8593 68.0693C74.8593 61.8259 70.7057 56.5537 65.0138 54.8811V58.7967C67.1368 59.344 68.7059 61.2786 68.7059 63.5756V66.6587C68.7059 67.337 68.1521 67.892 67.4752 67.892H66.2445C65.5676 67.892 65.0138 67.337 65.0138 66.6587C65.0138 65.9804 65.5676 65.4255 66.2445 65.4255V63.5756C66.2445 62.2113 65.1446 61.1091 63.7832 61.1091C62.4217 61.1091 61.3218 62.2113 61.3218 63.5756V65.4255C61.9987 65.4255 62.5525 65.9804 62.5525 66.6587C62.5525 67.337 61.9987 67.892 61.3218 67.892H60.0911C59.4143 67.892 58.8605 67.337 58.8605 66.6587V63.5756C58.8605 61.2786 60.4296 59.344 62.5525 58.7967V54.3955C62.091 54.3493 61.6218 54.3262 61.1449 54.3262H54.1146C53.6378 54.3262 53.1686 54.3493 52.7071 54.3955V59.4365C54.4838 59.9683 55.7838 61.6178 55.7838 63.5756C55.7838 65.9573 53.8531 67.892 51.4764 67.892C49.0996 67.892 47.169 65.9573 47.169 63.5756C47.169 61.6178 48.4689 59.9683 50.2457 59.4365V54.8811V54.8811ZM51.4764 65.4255C52.4994 65.4255 53.3224 64.6007 53.3224 63.5756C53.3224 62.5504 52.4994 61.7257 51.4764 61.7257C50.4534 61.7257 49.6304 62.5504 49.6304 63.5756C49.6304 64.6007 50.4534 65.4255 51.4764 65.4255Z" fill="white"/>
</g>
<path d="M146.47 97.771V88.411H150.084C150.175 88.411 150.276 88.4154 150.389 88.424C150.506 88.4284 150.623 88.4414 150.74 88.463C151.23 88.5367 151.644 88.7079 151.982 88.9765C152.324 89.2409 152.582 89.5745 152.755 89.9775C152.933 90.3805 153.022 90.8269 153.022 91.3165C153.022 91.8019 152.933 92.246 152.755 92.649C152.577 93.052 152.317 93.3879 151.975 93.6565C151.637 93.9209 151.225 94.0899 150.74 94.1635C150.623 94.1809 150.506 94.1939 150.389 94.2025C150.276 94.2112 150.175 94.2155 150.084 94.2155H147.425V97.771H146.47ZM147.425 93.3055H150.058C150.136 93.3055 150.227 93.3012 150.331 93.2925C150.435 93.2839 150.536 93.2687 150.636 93.247C150.957 93.1777 151.219 93.0455 151.423 92.8505C151.631 92.6555 151.784 92.4237 151.884 92.155C151.988 91.8864 152.04 91.6069 152.04 91.3165C152.04 91.0262 151.988 90.7467 151.884 90.478C151.784 90.205 151.631 89.971 151.423 89.776C151.219 89.581 150.957 89.4489 150.636 89.3795C150.536 89.3579 150.435 89.3449 150.331 89.3405C150.227 89.3319 150.136 89.3275 150.058 89.3275H147.425V93.3055ZM159.385 97.771V94.1895C159.385 93.7995 159.349 93.442 159.275 93.117C159.201 92.7877 159.082 92.5017 158.917 92.259C158.757 92.012 158.547 91.8214 158.287 91.687C158.031 91.5527 157.719 91.4855 157.351 91.4855C157.013 91.4855 156.714 91.544 156.454 91.661C156.198 91.778 155.982 91.947 155.804 92.168C155.631 92.3847 155.498 92.649 155.407 92.961C155.316 93.273 155.271 93.6284 155.271 94.027L154.595 93.8775C154.595 93.1582 154.721 92.5537 154.972 92.064C155.223 91.5744 155.57 91.2039 156.012 90.9525C156.454 90.7012 156.961 90.5755 157.533 90.5755C157.953 90.5755 158.319 90.6405 158.631 90.7705C158.948 90.9005 159.214 91.076 159.431 91.297C159.652 91.518 159.83 91.7715 159.964 92.0575C160.098 92.3392 160.196 92.6404 160.256 92.961C160.317 93.2774 160.347 93.5937 160.347 93.91V97.771H159.385ZM154.309 97.771V88.411H155.173V93.6955H155.271V97.771H154.309ZM164.043 97.966C163.514 97.966 163.07 97.8707 162.71 97.68C162.355 97.4894 162.088 97.2359 161.911 96.9195C161.733 96.6032 161.644 96.2587 161.644 95.886C161.644 95.5047 161.72 95.1797 161.872 94.911C162.028 94.638 162.238 94.4149 162.502 94.2415C162.771 94.0682 163.081 93.936 163.432 93.845C163.787 93.7584 164.179 93.6825 164.608 93.6175C165.041 93.5482 165.464 93.4897 165.876 93.442C166.292 93.39 166.656 93.3402 166.968 93.2925L166.63 93.5005C166.643 92.8072 166.508 92.2937 166.227 91.96C165.945 91.6264 165.455 91.4595 164.758 91.4595C164.277 91.4595 163.869 91.5679 163.536 91.7845C163.206 92.0012 162.974 92.3435 162.84 92.8115L161.911 92.5385C162.071 91.9102 162.394 91.4227 162.879 91.076C163.364 90.7294 163.995 90.556 164.771 90.556C165.412 90.556 165.956 90.6774 166.402 90.92C166.853 91.1584 167.171 91.505 167.358 91.96C167.444 92.1637 167.501 92.3912 167.527 92.6425C167.553 92.8939 167.566 93.1495 167.566 93.4095V97.771H166.714V96.0095L166.961 96.1135C166.723 96.7159 166.352 97.1752 165.85 97.4915C165.347 97.8079 164.745 97.966 164.043 97.966ZM164.153 97.1405C164.599 97.1405 164.989 97.0604 165.323 96.9C165.657 96.7397 165.925 96.5209 166.129 96.2435C166.333 95.9619 166.465 95.6455 166.526 95.2945C166.578 95.0692 166.606 94.8222 166.61 94.5535C166.614 94.2805 166.617 94.0769 166.617 93.9425L166.981 94.131C166.656 94.1744 166.302 94.2177 165.921 94.261C165.544 94.3044 165.171 94.3542 164.803 94.4105C164.439 94.4669 164.11 94.534 163.815 94.612C163.616 94.6684 163.423 94.7485 163.237 94.8525C163.05 94.9522 162.896 95.0865 162.775 95.2555C162.658 95.4245 162.6 95.6347 162.6 95.886C162.6 96.0897 162.649 96.2869 162.749 96.4775C162.853 96.6682 163.018 96.8264 163.243 96.952C163.473 97.0777 163.776 97.1405 164.153 97.1405ZM169.258 97.771V90.751H170.116V92.441L169.947 92.22C170.025 92.012 170.127 91.8214 170.252 91.648C170.378 91.4704 170.514 91.3252 170.662 91.2125C170.844 91.0522 171.056 90.9309 171.299 90.8485C171.541 90.7619 171.786 90.712 172.033 90.699C172.28 90.6817 172.506 90.699 172.709 90.751V91.648C172.454 91.583 172.174 91.5679 171.871 91.6025C171.567 91.6372 171.288 91.7585 171.032 91.9665C170.798 92.1485 170.623 92.3674 170.506 92.623C170.389 92.8744 170.311 93.143 170.272 93.429C170.233 93.7107 170.213 93.9902 170.213 94.2675V97.771H169.258ZM182.314 97.771L182.321 93.1625C182.321 92.6209 182.169 92.1962 181.866 91.8885C181.567 91.5765 181.185 91.4205 180.722 91.4205C180.457 91.4205 180.2 91.4812 179.948 91.6025C179.697 91.7239 179.489 91.9189 179.324 92.1875C179.164 92.4562 179.084 92.8072 179.084 93.2405L178.518 93.078C178.505 92.5754 178.603 92.1355 178.811 91.7585C179.023 91.3815 179.313 91.089 179.682 90.881C180.054 90.6687 180.475 90.5625 180.943 90.5625C181.649 90.5625 182.215 90.7814 182.639 91.219C183.064 91.6524 183.276 92.2395 183.276 92.9805L183.27 97.771H182.314ZM173.936 97.771V90.751H174.794V92.48H174.898V97.771H173.936ZM178.135 97.771L178.141 93.2275C178.141 92.6685 177.992 92.2287 177.693 91.908C177.398 91.583 177.008 91.4205 176.523 91.4205C176.037 91.4205 175.645 91.5874 175.346 91.921C175.047 92.2504 174.898 92.6902 174.898 93.2405L174.326 92.9285C174.326 92.4779 174.432 92.0749 174.644 91.7195C174.857 91.3599 175.147 91.0782 175.515 90.8745C175.884 90.6665 176.302 90.5625 176.77 90.5625C177.216 90.5625 177.613 90.6579 177.959 90.8485C178.31 91.0392 178.585 91.3165 178.785 91.6805C178.984 92.0445 179.084 92.4865 179.084 93.0065L179.077 97.771H178.135ZM186.97 97.966C186.442 97.966 185.997 97.8707 185.638 97.68C185.282 97.4894 185.016 97.2359 184.838 96.9195C184.661 96.6032 184.572 96.2587 184.572 95.886C184.572 95.5047 184.648 95.1797 184.799 94.911C184.955 94.638 185.165 94.4149 185.43 94.2415C185.698 94.0682 186.008 93.936 186.359 93.845C186.715 93.7584 187.107 93.6825 187.536 93.6175C187.969 93.5482 188.392 93.4897 188.803 93.442C189.219 93.39 189.583 93.3402 189.895 93.2925L189.557 93.5005C189.57 92.8072 189.436 92.2937 189.154 91.96C188.873 91.6264 188.383 91.4595 187.685 91.4595C187.204 91.4595 186.797 91.5679 186.463 91.7845C186.134 92.0012 185.902 92.3435 185.768 92.8115L184.838 92.5385C184.999 91.9102 185.321 91.4227 185.807 91.076C186.292 90.7294 186.923 90.556 187.698 90.556C188.34 90.556 188.883 90.6774 189.33 90.92C189.78 91.1584 190.099 91.505 190.285 91.96C190.372 92.1637 190.428 92.3912 190.454 92.6425C190.48 92.8939 190.493 93.1495 190.493 93.4095V97.771H189.642V96.0095L189.889 96.1135C189.65 96.7159 189.28 97.1752 188.777 97.4915C188.275 97.8079 187.672 97.966 186.97 97.966ZM187.081 97.1405C187.527 97.1405 187.917 97.0604 188.251 96.9C188.584 96.7397 188.853 96.5209 189.057 96.2435C189.26 95.9619 189.393 95.6455 189.453 95.2945C189.505 95.0692 189.533 94.8222 189.538 94.5535C189.542 94.2805 189.544 94.0769 189.544 93.9425L189.908 94.131C189.583 94.1744 189.23 94.2177 188.849 94.261C188.472 94.3044 188.099 94.3542 187.731 94.4105C187.367 94.4669 187.037 94.534 186.743 94.612C186.543 94.6684 186.351 94.7485 186.164 94.8525C185.978 94.9522 185.824 95.0865 185.703 95.2555C185.586 95.4245 185.527 95.6347 185.527 95.886C185.527 96.0897 185.577 96.2869 185.677 96.4775C185.781 96.6682 185.945 96.8264 186.171 96.952C186.4 97.0777 186.704 97.1405 187.081 97.1405ZM195.097 97.966C194.391 97.966 193.793 97.8079 193.303 97.4915C192.814 97.1752 192.441 96.7397 192.185 96.185C191.934 95.626 191.804 94.9847 191.795 94.261C191.804 93.5244 191.938 92.8787 192.198 92.324C192.458 91.765 192.833 91.3317 193.323 91.024C193.813 90.712 194.406 90.556 195.104 90.556C195.815 90.556 196.432 90.7294 196.956 91.076C197.485 91.4227 197.847 91.8972 198.042 92.4995L197.106 92.7985C196.941 92.3782 196.679 92.0532 196.319 91.8235C195.964 91.5895 195.557 91.4725 195.097 91.4725C194.582 91.4725 194.155 91.5917 193.817 91.83C193.479 92.064 193.228 92.3912 193.063 92.8115C192.898 93.2319 192.814 93.715 192.809 94.261C192.818 95.1017 193.013 95.7777 193.394 96.289C193.776 96.796 194.343 97.0495 195.097 97.0495C195.574 97.0495 195.979 96.9412 196.313 96.7245C196.651 96.5035 196.907 96.1829 197.08 95.7625L198.042 96.0485C197.782 96.6725 197.401 97.1492 196.898 97.4785C196.395 97.8035 195.795 97.966 195.097 97.966ZM200.131 100.891L201.489 97.2055L201.509 98.2975L198.434 90.751H199.448L201.97 97.0625H201.554L203.881 90.751H204.856L201.086 100.891H200.131Z" fill="black"/>
<rect x="147.342" y="20.2001" width="61.1944" height="61.1944" rx="8" fill="#6BCBB8"/>
<path fill-rule="evenodd" clip-rule="evenodd" d="M194.723 41.935C194.723 43.8784 193.951 45.7422 192.577 47.1164C191.203 48.4905 189.339 49.2625 187.396 49.2625C185.452 49.2625 183.589 48.4905 182.214 47.1164C180.84 45.7422 180.068 43.8784 180.068 41.935C180.068 39.9917 180.84 38.1279 182.214 36.7537C183.589 35.3795 185.452 34.6075 187.396 34.6075C189.339 34.6075 191.203 35.3795 192.577 36.7537C193.951 38.1279 194.723 39.9917 194.723 41.935V41.935ZM191.318 42.8372C191.263 43.0738 191.117 43.279 190.911 43.4078C190.705 43.5366 190.457 43.5785 190.22 43.5242L184.161 42.132C183.924 42.0775 183.718 41.9313 183.589 41.7253C183.46 41.5194 183.418 41.2706 183.473 41.0338C183.527 40.7969 183.673 40.5914 183.879 40.4624C184.085 40.3334 184.334 40.2915 184.571 40.3459L190.631 41.739C190.748 41.766 190.859 41.8158 190.957 41.8857C191.055 41.9555 191.138 42.0439 191.202 42.1459C191.265 42.2478 191.309 42.3614 191.328 42.48C191.348 42.5986 191.345 42.72 191.318 42.8372V42.8372Z" fill="white"/>
<path d="M171.621 37.5798C171.029 36.1765 169.045 36.0355 168.249 37.3389L162.017 47.536C161.298 48.7121 162.101 50.2142 163.503 50.314L174.372 51.0889C175.773 51.1897 176.794 49.8176 176.259 48.5518L171.621 37.5798Z" fill="white"/>
<path fill-rule="evenodd" clip-rule="evenodd" d="M188.664 62.4154C189.985 61.7994 191.008 60.6839 191.506 59.3142C192.005 57.9445 191.939 56.4328 191.323 55.1117C191.018 54.4575 190.587 53.8699 190.055 53.3822C189.523 52.8946 188.9 52.5165 188.222 52.2696C186.852 51.7709 185.341 51.8368 184.02 52.4527L174.058 57.0984C173.404 57.4033 172.816 57.8342 172.328 58.3662C171.841 58.8983 171.463 59.5212 171.216 60.1994C170.969 60.8775 170.858 61.5977 170.89 62.3187C170.921 63.0397 171.094 63.7475 171.399 64.4016C171.704 65.0557 172.135 65.6433 172.667 66.1309C173.199 66.6185 173.822 66.9965 174.5 67.2434C175.178 67.4902 175.899 67.6011 176.62 67.5697C177.341 67.5382 178.048 67.3651 178.702 67.0601L188.664 62.4145V62.4154ZM183.68 62.7176L187.89 60.7548C188.761 60.3381 189.432 59.5945 189.758 58.6857C190.083 57.777 190.037 56.7764 189.629 55.9015C189.221 55.0265 188.484 54.348 187.579 54.0134C186.673 53.6787 185.672 53.715 184.793 54.1142L180.583 56.0771L183.679 62.7176H183.68Z" fill="white"/>
<path d="M257.57 97.771V88.411H263.42V89.3275H258.526V92.5645H262.64V93.481H258.526V96.8545H263.42V97.771H257.57ZM273.356 97.771L273.363 93.1625C273.363 92.6209 273.211 92.1962 272.908 91.8885C272.609 91.5765 272.227 91.4205 271.764 91.4205C271.499 91.4205 271.242 91.4812 270.99 91.6025C270.739 91.7239 270.531 91.9189 270.366 92.1875C270.206 92.4562 270.126 92.8072 270.126 93.2405L269.56 93.078C269.547 92.5754 269.645 92.1355 269.853 91.7585C270.065 91.3815 270.355 91.089 270.724 90.881C271.096 90.6687 271.517 90.5625 271.985 90.5625C272.691 90.5625 273.257 90.7814 273.681 91.219C274.106 91.6524 274.318 92.2395 274.318 92.9805L274.312 97.771H273.356ZM264.978 97.771V90.751H265.836V92.48H265.94V97.771H264.978ZM269.177 97.771L269.183 93.2275C269.183 92.6685 269.034 92.2287 268.735 91.908C268.44 91.583 268.05 91.4205 267.565 91.4205C267.079 91.4205 266.687 91.5874 266.388 91.921C266.089 92.2504 265.94 92.6902 265.94 93.2405L265.368 92.9285C265.368 92.4779 265.474 92.0749 265.686 91.7195C265.899 91.3599 266.189 91.0782 266.557 90.8745C266.926 90.6665 267.344 90.5625 267.812 90.5625C268.258 90.5625 268.655 90.6579 269.001 90.8485C269.352 91.0392 269.627 91.3165 269.827 91.6805C270.026 92.0445 270.126 92.4865 270.126 93.0065L270.119 97.771H269.177ZM278.936 97.966C278.252 97.966 277.658 97.8144 277.155 97.511C276.657 97.2077 276.269 96.7809 275.992 96.2305C275.714 95.6802 275.576 95.0345 275.576 94.2935C275.576 93.5265 275.712 92.8635 275.985 92.3045C276.258 91.7455 276.642 91.3144 277.136 91.011C277.634 90.7077 278.221 90.556 278.897 90.556C279.591 90.556 280.182 90.7164 280.672 91.037C281.161 91.3534 281.532 91.8084 281.783 92.402C282.035 92.9957 282.149 93.7042 282.128 94.5275H281.153V94.1895C281.135 93.2795 280.938 92.5927 280.561 92.129C280.189 91.6654 279.643 91.4335 278.923 91.4335C278.169 91.4335 277.591 91.6784 277.188 92.168C276.789 92.6577 276.59 93.3554 276.59 94.261C276.59 95.145 276.789 95.8319 277.188 96.3215C277.591 96.8069 278.161 97.0495 278.897 97.0495C279.4 97.0495 279.838 96.9347 280.21 96.705C280.587 96.471 280.884 96.1352 281.101 95.6975L281.991 96.042C281.714 96.653 281.304 97.1275 280.763 97.4655C280.225 97.7992 279.617 97.966 278.936 97.966ZM276.252 94.5275V93.728H281.614V94.5275H276.252ZM283.57 97.771V90.751H284.428V92.441L284.259 92.22C284.337 92.012 284.439 91.8214 284.565 91.648C284.69 91.4704 284.827 91.3252 284.974 91.2125C285.156 91.0522 285.369 90.9309 285.611 90.8485C285.854 90.7619 286.099 90.712 286.346 90.699C286.593 90.6817 286.818 90.699 287.022 90.751V91.648C286.766 91.583 286.487 91.5679 286.183 91.6025C285.88 91.6372 285.6 91.7585 285.345 91.9665C285.111 92.1485 284.935 92.3674 284.818 92.623C284.701 92.8744 284.623 93.143 284.584 93.429C284.545 93.7107 284.526 93.9902 284.526 94.2675V97.771H283.57ZM290.789 101.086C290.43 101.086 290.074 101.032 289.723 100.924C289.377 100.82 289.056 100.653 288.761 100.423C288.467 100.198 288.22 99.903 288.02 99.539L288.885 99.058C289.08 99.448 289.353 99.7275 289.704 99.8965C290.059 100.07 290.421 100.157 290.789 100.157C291.296 100.157 291.706 100.061 292.018 99.8705C292.334 99.6842 292.564 99.4069 292.707 99.0385C292.85 98.6702 292.919 98.2109 292.915 97.6605V95.7885H293.025V90.751H293.877V97.6735C293.877 97.8729 293.87 98.0635 293.857 98.2455C293.849 98.4319 293.829 98.6139 293.799 98.7915C293.717 99.3159 293.545 99.747 293.285 100.085C293.03 100.423 292.692 100.674 292.271 100.839C291.855 101.004 291.361 101.086 290.789 101.086ZM290.724 97.966C290.07 97.966 289.511 97.8035 289.047 97.4785C288.584 97.1492 288.228 96.705 287.981 96.146C287.734 95.587 287.611 94.9565 287.611 94.2545C287.611 93.5569 287.732 92.9285 287.975 92.3695C288.222 91.8105 288.575 91.3685 289.034 91.0435C289.494 90.7185 290.044 90.556 290.685 90.556C291.344 90.556 291.899 90.7164 292.349 91.037C292.8 91.3577 293.14 91.7975 293.37 92.3565C293.604 92.9112 293.721 93.5439 293.721 94.2545C293.721 94.9522 293.606 95.5827 293.376 96.146C293.147 96.705 292.809 97.1492 292.362 97.4785C291.916 97.8035 291.37 97.966 290.724 97.966ZM290.822 97.0755C291.32 97.0755 291.732 96.9542 292.057 96.7115C292.382 96.4689 292.625 96.1352 292.785 95.7105C292.945 95.2815 293.025 94.7962 293.025 94.2545C293.025 93.7042 292.945 93.2189 292.785 92.7985C292.625 92.3739 292.382 92.0424 292.057 91.804C291.736 91.5657 291.331 91.4465 290.841 91.4465C290.339 91.4465 289.923 91.57 289.593 91.817C289.264 92.064 289.019 92.3999 288.859 92.8245C288.703 93.2492 288.625 93.7259 288.625 94.2545C288.625 94.7875 288.705 95.2685 288.865 95.6975C289.03 96.1222 289.275 96.458 289.6 96.705C289.925 96.952 290.332 97.0755 290.822 97.0755ZM298.665 97.966C297.98 97.966 297.386 97.8144 296.884 97.511C296.385 97.2077 295.998 96.7809 295.72 96.2305C295.443 95.6802 295.304 95.0345 295.304 94.2935C295.304 93.5265 295.441 92.8635 295.714 92.3045C295.987 91.7455 296.37 91.3144 296.864 91.011C297.363 90.7077 297.95 90.556 298.626 90.556C299.319 90.556 299.911 90.7164 300.4 91.037C300.89 91.3534 301.26 91.8084 301.512 92.402C301.763 92.9957 301.878 93.7042 301.856 94.5275H300.881V94.1895C300.864 93.2795 300.667 92.5927 300.29 92.129C299.917 91.6654 299.371 91.4335 298.652 91.4335C297.898 91.4335 297.319 91.6784 296.916 92.168C296.518 92.6577 296.318 93.3554 296.318 94.261C296.318 95.145 296.518 95.8319 296.916 96.3215C297.319 96.8069 297.889 97.0495 298.626 97.0495C299.128 97.0495 299.566 96.9347 299.939 96.705C300.316 96.471 300.613 96.1352 300.829 95.6975L301.72 96.042C301.442 96.653 301.033 97.1275 300.491 97.4655C299.954 97.7992 299.345 97.966 298.665 97.966ZM295.98 94.5275V93.728H301.343V94.5275H295.98ZM308.178 97.771V94.1895C308.178 93.7995 308.141 93.442 308.068 93.117C307.994 92.7877 307.875 92.5017 307.71 92.259C307.55 92.012 307.34 91.8214 307.08 91.687C306.824 91.5527 306.512 91.4855 306.144 91.4855C305.806 91.4855 305.507 91.544 305.247 91.661C304.991 91.778 304.774 91.947 304.597 92.168C304.423 92.3847 304.291 92.649 304.2 92.961C304.109 93.273 304.064 93.6284 304.064 94.027L303.388 93.8775C303.388 93.1582 303.513 92.5537 303.765 92.064C304.016 91.5744 304.363 91.2039 304.805 90.9525C305.247 90.7012 305.754 90.5755 306.326 90.5755C306.746 90.5755 307.112 90.6405 307.424 90.7705C307.741 90.9005 308.007 91.076 308.224 91.297C308.445 91.518 308.622 91.7715 308.757 92.0575C308.891 92.3392 308.989 92.6404 309.049 92.961C309.11 93.2774 309.14 93.5937 309.14 93.91V97.771H308.178ZM303.102 97.771V90.751H303.966V92.48H304.064V97.771H303.102ZM313.701 97.966C312.995 97.966 312.397 97.8079 311.907 97.4915C311.417 97.1752 311.045 96.7397 310.789 96.185C310.538 95.626 310.408 94.9847 310.399 94.261C310.408 93.5244 310.542 92.8787 310.802 92.324C311.062 91.765 311.437 91.3317 311.926 91.024C312.416 90.712 313.01 90.556 313.707 90.556C314.418 90.556 315.036 90.7294 315.56 91.076C316.089 91.4227 316.45 91.8972 316.645 92.4995L315.709 92.7985C315.545 92.3782 315.283 92.0532 314.923 91.8235C314.568 91.5895 314.16 91.4725 313.701 91.4725C313.185 91.4725 312.758 91.5917 312.42 91.83C312.082 92.064 311.831 92.3912 311.666 92.8115C311.502 93.2319 311.417 93.715 311.413 94.261C311.422 95.1017 311.617 95.7777 311.998 96.289C312.379 96.796 312.947 97.0495 313.701 97.0495C314.178 97.0495 314.583 96.9412 314.916 96.7245C315.254 96.5035 315.51 96.1829 315.683 95.7625L316.645 96.0485C316.385 96.6725 316.004 97.1492 315.501 97.4785C314.999 97.8035 314.399 97.966 313.701 97.966ZM318.734 100.891L320.093 97.2055L320.112 98.2975L317.038 90.751H318.052L320.574 97.0625H320.158L322.485 90.751H323.46L319.69 100.891H318.734ZM330.981 97.966C330.049 97.966 329.263 97.7602 328.621 97.3485C327.98 96.9325 327.495 96.3584 327.165 95.626C326.836 94.8937 326.671 94.0487 326.671 93.091C326.671 92.1334 326.836 91.2884 327.165 90.556C327.495 89.8237 327.98 89.2517 328.621 88.84C329.263 88.424 330.049 88.216 330.981 88.216C332.068 88.216 332.957 88.4955 333.646 89.0545C334.335 89.6092 334.807 90.3545 335.063 91.2905L334.088 91.544C333.888 90.803 333.531 90.2159 333.015 89.7825C332.5 89.3492 331.821 89.1325 330.981 89.1325C330.248 89.1325 329.64 89.2994 329.154 89.633C328.669 89.9667 328.303 90.4325 328.056 91.0305C327.813 91.6242 327.687 92.311 327.679 93.091C327.674 93.871 327.794 94.5579 328.036 95.1515C328.283 95.7452 328.652 96.211 329.141 96.549C329.635 96.8827 330.248 97.0495 330.981 97.0495C331.821 97.0495 332.5 96.8329 333.015 96.3995C333.531 95.9619 333.888 95.3747 334.088 94.638L335.063 94.8915C334.807 95.8275 334.335 96.575 333.646 97.134C332.957 97.6887 332.068 97.966 330.981 97.966ZM338.505 97.966C337.977 97.966 337.533 97.8707 337.173 97.68C336.818 97.4894 336.551 97.2359 336.373 96.9195C336.196 96.6032 336.107 96.2587 336.107 95.886C336.107 95.5047 336.183 95.1797 336.334 94.911C336.49 94.638 336.701 94.4149 336.965 94.2415C337.234 94.0682 337.543 93.936 337.894 93.845C338.25 93.7584 338.642 93.6825 339.071 93.6175C339.504 93.5482 339.927 93.4897 340.338 93.442C340.754 93.39 341.118 93.3402 341.43 93.2925L341.092 93.5005C341.105 92.8072 340.971 92.2937 340.689 91.96C340.408 91.6264 339.918 91.4595 339.22 91.4595C338.739 91.4595 338.332 91.5679 337.998 91.7845C337.669 92.0012 337.437 92.3435 337.303 92.8115L336.373 92.5385C336.534 91.9102 336.857 91.4227 337.342 91.076C337.827 90.7294 338.458 90.556 339.233 90.556C339.875 90.556 340.419 90.6774 340.865 90.92C341.316 91.1584 341.634 91.505 341.82 91.96C341.907 92.1637 341.963 92.3912 341.989 92.6425C342.015 92.8939 342.028 93.1495 342.028 93.4095V97.771H341.177V96.0095L341.424 96.1135C341.186 96.7159 340.815 97.1752 340.312 97.4915C339.81 97.8079 339.207 97.966 338.505 97.966ZM338.616 97.1405C339.062 97.1405 339.452 97.0604 339.786 96.9C340.12 96.7397 340.388 96.5209 340.592 96.2435C340.796 95.9619 340.928 95.6455 340.988 95.2945C341.04 95.0692 341.069 94.8222 341.073 94.5535C341.077 94.2805 341.079 94.0769 341.079 93.9425L341.443 94.131C341.118 94.1744 340.765 94.2177 340.384 94.261C340.007 94.3044 339.634 94.3542 339.266 94.4105C338.902 94.4669 338.573 94.534 338.278 94.612C338.079 94.6684 337.886 94.7485 337.699 94.8525C337.513 94.9522 337.359 95.0865 337.238 95.2555C337.121 95.4245 337.062 95.6347 337.062 95.886C337.062 96.0897 337.112 96.2869 337.212 96.4775C337.316 96.6682 337.481 96.8264 337.706 96.952C337.936 97.0777 338.239 97.1405 338.616 97.1405ZM343.721 97.771V90.751H344.579V92.441L344.41 92.22C344.488 92.012 344.589 91.8214 344.715 91.648C344.841 91.4704 344.977 91.3252 345.125 91.2125C345.307 91.0522 345.519 90.9309 345.762 90.8485C346.004 90.7619 346.249 90.712 346.496 90.699C346.743 90.6817 346.968 90.699 347.172 90.751V91.648C346.916 91.583 346.637 91.5679 346.334 91.6025C346.03 91.6372 345.751 91.7585 345.495 91.9665C345.261 92.1485 345.086 92.3674 344.969 92.623C344.852 92.8744 344.774 93.143 344.735 93.429C344.696 93.7107 344.676 93.9902 344.676 94.2675V97.771H343.721ZM351.249 97.966C350.564 97.966 349.97 97.8144 349.468 97.511C348.969 97.2077 348.582 96.7809 348.304 96.2305C348.027 95.6802 347.888 95.0345 347.888 94.2935C347.888 93.5265 348.025 92.8635 348.298 92.3045C348.571 91.7455 348.954 91.3144 349.448 91.011C349.947 90.7077 350.534 90.556 351.21 90.556C351.903 90.556 352.495 90.7164 352.984 91.037C353.474 91.3534 353.844 91.8084 354.096 92.402C354.347 92.9957 354.462 93.7042 354.44 94.5275H353.465V94.1895C353.448 93.2795 353.251 92.5927 352.874 92.129C352.501 91.6654 351.955 91.4335 351.236 91.4335C350.482 91.4335 349.903 91.6784 349.5 92.168C349.102 92.6577 348.902 93.3554 348.902 94.261C348.902 95.145 349.102 95.8319 349.5 96.3215C349.903 96.8069 350.473 97.0495 351.21 97.0495C351.712 97.0495 352.15 96.9347 352.523 96.705C352.9 96.471 353.197 96.1352 353.413 95.6975L354.304 96.042C354.026 96.653 353.617 97.1275 353.075 97.4655C352.538 97.7992 351.929 97.966 351.249 97.966ZM348.564 94.5275V93.728H353.927V94.5275H348.564Z" fill="black"/>
<rect x="279.831" y="20.2001" width="61.1944" height="61.1944" rx="8" fill="#6BCBB8"/>
<g clip-path="url(#clip1_9_69)">
<path d="M301.301 64.066C301.301 63.1503 300.977 62.3686 300.329 61.7207C299.681 61.0728 298.898 60.7488 297.982 60.7488C297.066 60.7488 296.284 61.0728 295.636 61.7207C294.988 62.3686 294.663 63.1503 294.663 64.066C294.663 64.9817 294.988 65.7635 295.636 66.4114C296.284 67.0593 297.066 67.3832 297.982 67.3832C298.898 67.3832 299.681 67.0593 300.329 66.4114C300.977 65.7635 301.301 64.9817 301.301 64.066ZM291.345 50.7973H301.301V44.163H297.204C296.962 44.1975 296.772 44.2753 296.634 44.3962L291.578 49.4497C291.457 49.657 291.379 49.8471 291.345 50.0199V50.7973ZM324.533 64.066C324.533 63.1503 324.209 62.3686 323.561 61.7207C322.913 61.0728 322.131 60.7488 321.214 60.7488C320.298 60.7488 319.516 61.0728 318.868 61.7207C318.22 62.3686 317.896 63.1503 317.896 64.066C317.896 64.9817 318.22 65.7635 318.868 66.4114C319.516 67.0593 320.298 67.3832 321.214 67.3832C322.131 67.3832 322.913 67.0593 323.561 66.4114C324.209 65.7635 324.533 64.9817 324.533 64.066ZM327.852 46.6509V41.6751C327.852 41.4332 327.774 41.2345 327.619 41.079C327.463 40.9235 327.265 40.8458 327.023 40.8458H321.214V35.0407C321.214 34.7989 321.137 34.6002 320.981 34.4447C320.826 34.2892 320.627 34.2114 320.385 34.2114H315.406C315.164 34.2114 314.966 34.2892 314.81 34.4447C314.654 34.6002 314.577 34.7989 314.577 35.0407V40.8458H308.769C308.527 40.8458 308.328 40.9235 308.172 41.079C308.017 41.2345 307.939 41.4332 307.939 41.6751V46.6509C307.939 46.8927 308.017 47.0914 308.172 47.2469C308.328 47.4024 308.527 47.4801 308.769 47.4801H314.577V53.2852C314.577 53.5271 314.654 53.7258 314.81 53.8813C314.966 54.0367 315.164 54.1145 315.406 54.1145H320.385C320.627 54.1145 320.826 54.0367 320.981 53.8813C321.137 53.7258 321.214 53.5271 321.214 53.2852V47.4801H327.023C327.265 47.4801 327.463 47.4024 327.619 47.2469C327.774 47.0914 327.852 46.8927 327.852 46.6509ZM334.49 32.5529V62.4074C334.49 62.8566 334.326 63.2454 333.997 63.5736C333.669 63.9019 333.28 64.066 332.831 64.066H327.852C327.852 65.8974 327.204 67.4609 325.908 68.7567C324.611 70.0525 323.047 70.7004 321.214 70.7004C319.382 70.7004 317.818 70.0525 316.521 68.7567C315.225 67.4609 314.577 65.8974 314.577 64.066H304.62C304.62 65.8974 303.972 67.4609 302.675 68.7567C301.379 70.0525 299.815 70.7004 297.982 70.7004C296.15 70.7004 294.586 70.0525 293.289 68.7567C291.993 67.4609 291.345 65.8974 291.345 64.066H288.026C287.576 64.066 287.187 63.9019 286.859 63.5736C286.53 63.2454 286.366 62.8566 286.366 62.4074C286.366 61.9582 286.53 61.5695 286.859 61.2412C287.187 60.913 287.576 60.7488 288.026 60.7488V49.968C288.026 49.5188 288.138 49.0178 288.363 48.4649C288.587 47.9121 288.864 47.4715 289.192 47.1432L294.326 42.012C294.655 41.6837 295.096 41.4073 295.649 41.1827C296.202 40.9581 296.703 40.8458 297.153 40.8458H301.301V32.5529C301.301 32.1037 301.465 31.7149 301.794 31.3867C302.122 31.0584 302.511 30.8943 302.961 30.8943H332.831C333.28 30.8943 333.669 31.0584 333.997 31.3867C334.326 31.7149 334.49 32.1037 334.49 32.5529Z" fill="white"/>
</g>
<defs>
<clipPath id="clip0_9_69">
<rect width="34.459" height="39.4642" fill="white" transform="translate(40.4003 30.8943)"/>
</clipPath>
<clipPath id="clip1_9_69">
<rect width="48.1238" height="39.8061" fill="white" transform="translate(286.366 30.8943)"/>
</clipPath>
</defs>
</svg>
